<?xml version="1.0" encoding="UTF-8" ?>
<!DOCTYPE svg PUBLIC "-//W3C//DTD SVG 1.1//EN" "http://www.w3.org/Graphics/SVG/1.1/DTD/svg11.dtd">
<svg width="300pt" height="195pt" viewBox="0 0 300 195" version="1.1" xmlns="http://www.w3.org/2000/svg">
<g id="#000000ff">
</g>
<g id="#df0029ff">
<path fill="#df0029" opacity="1.00" d=" M 90.18 105.10 C 118.11 70.02 146.44 35.24 174.18 0.01 C 173.47 19.07 173.40 38.16 172.53 57.22 C 151.33 83.14 130.32 109.20 109.11 135.12 C 105.84 139.78 101.54 143.53 97.45 147.44 C 86.30 158.16 70.47 163.85 55.06 162.56 C 38.97 161.43 24.23 151.97 14.94 139.02 C 6.83 127.70 2.37 113.84 1.86 99.96 C 2.61 91.01 5.30 82.34 7.67 73.71 C 9.51 66.80 13.01 60.48 16.26 54.17 C 20.79 48.17 25.10 41.62 31.74 37.74 C 43.34 30.34 59.20 30.00 71.02 37.08 C 84.28 44.53 92.26 61.05 88.44 75.99 C 86.14 87.78 77.71 98.01 66.73 102.79 C 50.98 109.76 30.80 104.26 21.15 89.88 C 18.59 86.79 17.94 80.99 12.83 81.30 C 10.36 88.12 12.42 95.43 15.10 101.84 C 19.92 112.58 29.80 120.97 41.23 123.84 C 52.57 126.90 65.34 124.73 74.88 117.83 C 80.29 114.00 86.14 110.49 90.18 105.10 Z" />
<path fill="#df0029" opacity="1.00" d=" M 230.58 33.38 C 246.23 29.84 263.25 34.18 275.54 44.44 C 289.84 56.00 297.77 74.00 299.42 92.05 C 299.90 97.33 298.49 102.50 297.32 107.59 C 295.02 116.77 292.84 126.13 288.32 134.52 C 285.39 141.37 280.57 147.17 275.55 152.59 C 265.83 162.30 250.67 165.21 237.70 161.29 C 226.77 157.71 217.50 148.94 213.90 137.94 C 208.15 121.97 215.84 102.78 230.42 94.37 C 242.27 87.18 258.22 87.59 269.80 95.15 C 275.80 98.78 280.28 104.41 283.42 110.60 C 284.20 112.76 286.35 113.48 288.39 113.98 C 289.25 111.05 289.96 107.99 289.52 104.92 C 288.16 93.38 281.53 82.50 271.68 76.27 C 262.50 70.12 250.71 68.34 240.03 70.99 C 232.09 72.50 225.67 77.72 219.23 82.24 C 214.15 85.75 210.43 90.74 206.66 95.53 C 181.55 126.83 156.49 158.16 131.36 189.44 C 129.96 191.26 128.68 193.17 127.29 195.00 L 127.29 195.00 C 127.47 175.99 128.37 157.00 128.70 137.99 C 149.65 112.16 170.63 86.36 191.64 60.58 C 196.23 54.25 202.10 49.04 208.01 43.99 C 214.52 38.62 222.52 35.57 230.58 33.38 Z" />
</g>
</svg>
